<?xml version="1.0" encoding="utf-8"?>
<!-- Generator: Adobe Illustrator 16.0.0, SVG Export Plug-In . SVG Version: 6.00 Build 0)  -->
<!DOCTYPE svg PUBLIC "-//W3C//DTD SVG 1.1//EN" "http://www.w3.org/Graphics/SVG/1.1/DTD/svg11.dtd">
<svg version="1.1" id="Layer_1" xmlns="http://www.w3.org/2000/svg" xmlns:xlink="http://www.w3.org/1999/xlink" x="0px" y="0px"
	 width="612px" height="792px" viewBox="0 0 612 792" enable-background="new 0 0 612 792" xml:space="preserve">
<path fill="#A7A9AC" d="M258.206,223.945l57.413-74.779l57.547,74.779h47.582l-78.088-101.554c-14.42-14.133-39.647-14.133-54.067,0
	l-1.759,1.969l-76.459,99.584H258.206z"/>
<path fill="#F4772B" d="M38.25,221.208h535.499c21.114,0,38.251,17.136,38.251,38.25v382.499c0,21.134-17.137,38.25-38.251,38.25
	H38.25c-21.114,0-38.25-17.116-38.25-38.25V259.459C0,238.308,17.136,221.208,38.25,221.208z"/>
<path fill="#0F4863" d="M76.499,259.459h458.998c21.113,0,38.25,17.137,38.25,38.25v306c0,21.134-17.136,38.25-38.25,38.25H76.499
	c-21.114,0-38.25-17.116-38.25-38.25v-306C38.25,276.556,55.385,259.459,76.499,259.459z"/>
<text transform="matrix(1 0 0 1 129.8774 553.4336)" fill="#E4E7E7" font-family="'ArialRoundedMTBold'" font-size="287.1334">A</text>
<text transform="matrix(1 0 0 1 345.8018 503.166)" fill="#E4E7E7" font-family="'ArialRoundedMTBold'" font-size="229.7067">+</text>
</svg>
